<svg xmlns="http://www.w3.org/2000/svg" width="20" height="20" fill="none"><path fill="#788BA5" d="M4.75 3a.75.75 0 0 1 .75.75v1.354a2.751 2.751 0 0 1 0 5.292v5.854a.75.75 0 0 1-1.5 0v-5.853a2.751 2.751 0 0 1 0-5.293V3.75A.75.75 0 0 1 4.75 3m0 3.5a1.25 1.25 0 1 0 0 2.5 1.25 1.25 0 0 0 0-2.5M10 3a.75.75 0 0 1 .75.75v5.604a2.751 2.751 0 0 1 0 5.293v1.603a.75.75 0 0 1-1.5 0v-1.604a2.751 2.751 0 0 1 0-5.292V3.75A.75.75 0 0 1 10 3m-1.25 9a1.25 1.25 0 1 0 2.5 0 1.25 1.25 0 0 0-2.5 0M16 3.75a.75.75 0 0 0-1.5 0v1.354a2.751 2.751 0 0 0 0 5.292v5.854a.75.75 0 0 0 1.5 0v-5.853a2.751 2.751 0 0 0 0-5.293zm-.75 2.75a1.25 1.25 0 1 1 0 2.5 1.25 1.25 0 0 1 0-2.5"/></svg>