<svg xmlns="http://www.w3.org/2000/svg" width="20" height="20" fill="none"><path fill="#788BA5" d="M14.75 3.5a.75.75 0 0 0-1.5 0v1.75H11.5a.75.75 0 0 0 0 1.5h1.75V8.5a.75.75 0 0 0 1.5 0V6.75h1.75a.75.75 0 0 0 0-1.5h-1.75z"/><path fill="#788BA5" fill-rule="evenodd" d="M3 5a2 2 0 0 1 2-2h3.25a1 1 0 0 1 1 1v4.25a1 1 0 0 1-1 1H4a1 1 0 0 1-1-1zm2-.5h2.75v3.25H4.5V5a.5.5 0 0 1 .5-.5M3 11.75a1 1 0 0 1 1-1h4.25a1 1 0 0 1 1 1V16a1 1 0 0 1-1 1H5a2 2 0 0 1-2-2zM4.5 15v-2.75h3.25v3.25H5a.5.5 0 0 1-.5-.5M11.75 10.75a1 1 0 0 0-1 1V16a1 1 0 0 0 1 1H15a2 2 0 0 0 2-2v-3.25a1 1 0 0 0-1-1zm.5 1.5v3.25H15a.5.5 0 0 0 .5-.5v-2.75z" clip-rule="evenodd"/></svg>