<svg xmlns="http://www.w3.org/2000/svg" width="20" height="20" fill="none"><path fill="#788BA5" d="M4.437 5.476A2.36 2.36 0 0 1 9 6.318v.51a4.75 4.75 0 0 1 2 0v-.406a2.36 2.36 0 0 1 4.563-.842l2.207 5.779A3.5 3.5 0 1 1 11 12.606V11.38a3.25 3.25 0 0 0-2 0v1.12a3.5 3.5 0 1 1-6.77-1.246zm.22 3.626a3.5 3.5 0 0 1 2.843.525v-3.31a.86.86 0 0 0-1.662-.306zM7.5 12.5a2 2 0 0 0-3.844-.775l-.025.064a2 2 0 1 0 3.869.71M9 9.829a4.75 4.75 0 0 1 2 0v-1.45a3.25 3.25 0 0 0-2 0zm6.343-.622-1.18-3.091a.86.86 0 0 0-1.663.306v3.31a3.508 3.508 0 0 1 2.843-.525m1.001 2.622a2 2 0 1 0-3.688 1.552 2 2 0 0 0 3.688-1.552"/></svg>