<svg xmlns="http://www.w3.org/2000/svg" width="20" height="20" fill="none"><path fill="#788BA5" d="M7 2.25A2.75 2.75 0 0 0 4.25 5v3a1.25 1.25 0 0 1-1.221 1.25h-.046a.749.749 0 0 0-.002 1.496v.004l.051.001a1.25 1.25 0 0 1 1.218 1.25V15A2.75 2.75 0 0 0 7 17.75h1a.75.75 0 0 0 0-1.5H7c-.69 0-1.25-.56-1.25-1.25v-3c0-.787-.331-1.498-.863-2a2.74 2.74 0 0 0 .863-2V5c0-.69.56-1.25 1.25-1.25h1a.75.75 0 1 0 0-1.5zM13 2.25A2.75 2.75 0 0 1 15.75 5v3a1.25 1.25 0 0 0 1.221 1.25h.046a.749.749 0 0 1 .002 1.496v.004l-.051.001a1.25 1.25 0 0 0-1.218 1.25V15A2.75 2.75 0 0 1 13 17.75h-1a.75.75 0 0 1 0-1.5h1c.69 0 1.25-.56 1.25-1.25v-3c0-.787.331-1.498.863-2a2.74 2.74 0 0 1-.863-2V5c0-.69-.56-1.25-1.25-1.25h-1a.75.75 0 0 1 0-1.5z"/></svg>