<svg xmlns="http://www.w3.org/2000/svg" width="20" height="20" fill="none"><path fill="#788BA5" d="M10 13a3 3 0 1 0 0-6 3 3 0 0 0 0 6m1.5-3a1.5 1.5 0 1 1-3 0 1.5 1.5 0 0 1 3 0"/><path fill="#788BA5" d="m4.008 14.576 5 2.857a2 2 0 0 0 1.984 0l5-2.857A2 2 0 0 0 17 12.839V7.161a2 2 0 0 0-1.008-1.737l-5-2.857a2 2 0 0 0-1.984 0l-5 2.857A2 2 0 0 0 3 7.161v5.678a2 2 0 0 0 1.008 1.737m6.24-10.707 5 2.857a.5.5 0 0 1 .252.435v5.678a.5.5 0 0 1-.252.434l-5 2.858a.5.5 0 0 1-.496 0l-5-2.858a.5.5 0 0 1-.252-.434V7.161a.5.5 0 0 1 .252-.435l5-2.857a.5.5 0 0 1 .496 0"/></svg>