<svg xmlns="http://www.w3.org/2000/svg" width="20" height="20" fill="none"><path fill="#788BA5" fill-rule="evenodd" d="M5.5 14.5h-.75A2.75 2.75 0 0 1 2 11.75v-7A2.75 2.75 0 0 1 4.75 2h7a2.75 2.75 0 0 1 2.75 2.75v.75h.75A2.75 2.75 0 0 1 18 8.25v7A2.75 2.75 0 0 1 15.25 18h-7a2.75 2.75 0 0 1-2.75-2.75zm-2-9.75v7c0 .69.56 1.25 1.25 1.25h.75V8.25A2.75 2.75 0 0 1 8.25 5.5H13v-.75c0-.69-.56-1.25-1.25-1.25h-7c-.69 0-1.25.56-1.25 1.25M7 8.25v7c0 .69.56 1.25 1.25 1.25h7c.69 0 1.25-.56 1.25-1.25v-7c0-.69-.56-1.25-1.25-1.25h-7C7.56 7 7 7.56 7 8.25" clip-rule="evenodd"/></svg>