<svg xmlns="http://www.w3.org/2000/svg" width="20" height="20" fill="none"><path fill="#788BA5" d="M8.25 3.524a.14.14 0 0 1 .083-.024h3.334c.04 0 .07.014.083.024V5h-3.5zm5 1.476V3.5c0-.425-.188-.814-.492-1.088A1.63 1.63 0 0 0 11.667 2H8.333c-.396 0-.79.14-1.09.412A1.46 1.46 0 0 0 6.75 3.5V5h-3a.75.75 0 0 0 0 1.5h.271l.395 8.872A2.75 2.75 0 0 0 7.163 18h5.674a2.75 2.75 0 0 0 2.747-2.628L15.98 6.5h.271a.75.75 0 0 0 0-1.5zM5.523 6.5h8.954l-.391 8.806a1.25 1.25 0 0 1-1.25 1.194H7.164a1.25 1.25 0 0 1-1.249-1.194zm2.727 2a.75.75 0 0 0-.75.75v4.25a.75.75 0 0 0 1.5 0V9.25a.75.75 0 0 0-.75-.75m3.5 0a.75.75 0 0 0-.75.75v4.25a.75.75 0 0 0 1.5 0V9.25a.75.75 0 0 0-.75-.75"/></svg>