<svg xmlns="http://www.w3.org/2000/svg" width="20" height="20" fill="none"><path fill="#788BA5" fill-rule="evenodd" d="M8.254 2.43A3.7 3.7 0 0 1 9.98 2c.634 0 1.256.164 1.807.471 1.092.608 3.298 1.822 5.064 2.703A2.07 2.07 0 0 1 18 7.02c0 .755-.417 1.45-1.085 1.804l-5.153 2.738a3.76 3.76 0 0 1-3.524 0L3.102 8.833a2.076 2.076 0 0 1 0-3.666zM9.98 3.5c-.357 0-.708.087-1.023.255L3.806 6.492a.576.576 0 0 0 0 1.016l5.136 2.729a2.26 2.26 0 0 0 2.116 0l5.154-2.738a.54.54 0 0 0 .288-.48.57.57 0 0 0-.318-.503c-1.8-.897-4.031-2.126-5.125-2.734A2.2 2.2 0 0 0 9.98 3.5" clip-rule="evenodd"/><path fill="#788BA5" d="M2.088 10.445a.75.75 0 0 1 1.014-.31l5.84 3.102a2.26 2.26 0 0 0 2.116 0l5.84-3.102a.75.75 0 1 1 .704 1.324l-5.84 3.103a3.76 3.76 0 0 1-3.524 0l-5.84-3.103a.75.75 0 0 1-.31-1.014"/><path fill="#788BA5" d="M3.102 13.135a.75.75 0 1 0-.704 1.324l5.84 3.103a3.76 3.76 0 0 0 3.524 0l5.84-3.103a.75.75 0 1 0-.704-1.324l-5.84 3.102a2.26 2.26 0 0 1-2.116 0z"/></svg>