<svg xmlns="http://www.w3.org/2000/svg" width="20" height="20" fill="none"><path fill="#788BA5" d="m7.386 11.97.962-2.564a2 2 0 0 1 .458-.712l5.487-5.487a1 1 0 0 1 1.414 0l1.086 1.086a1 1 0 0 1 0 1.414l-5.487 5.487a2 2 0 0 1-.712.458l-2.564.962a.5.5 0 0 1-.644-.644"/><path fill="#788BA5" d="M5.75 4A2.75 2.75 0 0 0 3 6.75v7.5A2.75 2.75 0 0 0 5.75 17h7.5A2.75 2.75 0 0 0 16 14.25V12a.75.75 0 0 0-1.5 0v2.25c0 .69-.56 1.25-1.25 1.25h-7.5c-.69 0-1.25-.56-1.25-1.25v-7.5c0-.69.56-1.25 1.25-1.25H8A.75.75 0 0 0 8 4z"/></svg>