<svg xmlns="http://www.w3.org/2000/svg" width="20" height="20" fill="none"><path fill="#788BA5" d="M11.3 3.75c0 .414.336.75.75.75h2.39l-5.97 5.97a.75.75 0 1 0 1.06 1.06l5.97-5.97v2.39a.75.75 0 0 0 1.5 0v-4.2a.75.75 0 0 0-.75-.75h-4.2a.75.75 0 0 0-.75.75"/><path fill="#788BA5" d="M5.75 5.25A2.75 2.75 0 0 0 3 8v6.25A2.75 2.75 0 0 0 5.75 17h6.5A2.75 2.75 0 0 0 15 14.25V11a.75.75 0 0 0-1.5 0v3.25c0 .69-.56 1.25-1.25 1.25h-6.5c-.69 0-1.25-.56-1.25-1.25V8c0-.69.56-1.25 1.25-1.25H9a.75.75 0 0 0 0-1.5z"/></svg>