<svg xmlns="http://www.w3.org/2000/svg" width="20" height="20" fill="none"><path fill="#788BA5" d="M6.75 7a.75.75 0 0 0 0 1.5h2.5a.75.75 0 0 0 0-1.5zM6 10.75a.75.75 0 0 1 .75-.75h6.5a.75.75 0 0 1 0 1.5h-6.5a.75.75 0 0 1-.75-.75M6.75 13a.75.75 0 0 0 0 1.5h6.5a.75.75 0 0 0 0-1.5z"/><path fill="#788BA5" fill-rule="evenodd" d="M3 4v12a2 2 0 0 0 2 2h10a2 2 0 0 0 2-2V6.914a1 1 0 0 0-.293-.707l-3.914-3.914A1 1 0 0 0 12.086 2H5a2 2 0 0 0-2 2m1.5 0v12a.5.5 0 0 0 .5.5h10a.5.5 0 0 0 .5-.5V7.25h-1.75a2 2 0 0 1-2-2V3.5H5a.5.5 0 0 0-.5.5" clip-rule="evenodd"/></svg>