<svg xmlns="http://www.w3.org/2000/svg" width="20" height="20" fill="none"><path fill="#788BA5" fill-rule="evenodd" d="M4 2a2 2 0 0 0-2 2v1a2 2 0 0 0 2 2h1.25v6.5A2.75 2.75 0 0 0 8 16.25h2.015A2 2 0 0 0 12 18h4a2 2 0 0 0 2-2v-1a2 2 0 0 0-2-2h-4a2 2 0 0 0-1.985 1.75H8c-.69 0-1.25-.56-1.25-1.25v-3.25h3.265A2 2 0 0 0 12 12h4a2 2 0 0 0 2-2V9a2 2 0 0 0-2-2h-4a2 2 0 0 0-1.985 1.75H6.75V7H8a2 2 0 0 0 2-2V4a2 2 0 0 0-2-2zm4 1.5H4a.5.5 0 0 0-.5.5v1a.5.5 0 0 0 .5.5h4a.5.5 0 0 0 .5-.5V4a.5.5 0 0 0-.5-.5m4 5h4a.5.5 0 0 1 .5.5v1a.5.5 0 0 1-.5.5h-4a.5.5 0 0 1-.5-.5V9a.5.5 0 0 1 .5-.5m0 6h4a.5.5 0 0 1 .5.5v1a.5.5 0 0 1-.5.5h-4a.5.5 0 0 1-.5-.5v-1a.5.5 0 0 1 .5-.5" clip-rule="evenodd"/></svg>