<svg xmlns="http://www.w3.org/2000/svg" width="20" height="20" fill="none"><path fill="#788BA5" d="M12 6.25v-1.5h-1.5v1.5zM12 7.75v-1.5h1.5v1.5zM12 9.25h-1.5v-1.5H12zM12 10.75h-1.5v1.5H12v1.5h-1.5v1.5H12v-1.5h1.5v-1.5H12zM12 10.75h1.5v-1.5H12z"/><path fill="#788BA5" fill-rule="evenodd" d="M16 2H4a2 2 0 0 0-2 2v12a2 2 0 0 0 2 2h12a2 2 0 0 0 2-2V4a2 2 0 0 0-2-2m-4 1.5h-1.5v1.25H9v1.5h1.5v1.5H9v1.5h1.5v1.5H9v1.5h1.5v1.5H9v1.5h1.5v1.25H12v-1.25h1.5v1.25H16a.5.5 0 0 0 .5-.5V4a.5.5 0 0 0-.5-.5h-2.5v1.25H12z" clip-rule="evenodd"/></svg>