<svg xmlns="http://www.w3.org/2000/svg" width="20" height="20" fill="none"><path fill="#788BA5" fill-rule="evenodd" d="M10 18a8 8 0 1 0 0-16 8 8 0 0 0 0 16m6.5-8a6.47 6.47 0 0 1-1.404 4.035l-1.727-1.727c.45-.656.714-1.451.714-2.308s-.263-1.652-.714-2.308l1.727-1.727A6.47 6.47 0 0 1 16.5 10m-2.465-5.096A6.47 6.47 0 0 0 10 3.5a6.47 6.47 0 0 0-4.035 1.404l1.727 1.727A4.06 4.06 0 0 1 10 5.917c.857 0 1.652.263 2.308.714zM5.917 10c0-.857.263-1.652.714-2.308L4.904 5.965A6.47 6.47 0 0 0 3.5 10c0 1.525.525 2.927 1.404 4.035l1.727-1.727A4.07 4.07 0 0 1 5.917 10m.048 5.096A6.47 6.47 0 0 0 10 16.5a6.47 6.47 0 0 0 4.035-1.404l-1.727-1.727a4.07 4.07 0 0 1-2.308.714 4.06 4.06 0 0 1-2.308-.714zM7.417 10a2.583 2.583 0 1 1 5.166 0 2.583 2.583 0 0 1-5.166 0" clip-rule="evenodd"/></svg>