<svg xmlns="http://www.w3.org/2000/svg" width="20" height="20" fill="none"><path fill="#788BA5" fill-rule="evenodd" d="M3.22 3.22a.75.75 0 0 1 1.06 0l12.5 12.5a.75.75 0 1 1-1.06 1.06l-2.017-2.016C12.617 15.46 11.346 16 10 16c-1.8 0-3.475-.967-4.773-2.009-1.317-1.056-2.357-2.28-2.903-2.976a1.64 1.64 0 0 1 .001-2.032c.524-.667 1.504-1.822 2.748-2.85L3.22 4.28a.75.75 0 0 1 0-1.06M6.14 7.2c-1.177.949-2.125 2.06-2.635 2.71a.15.15 0 0 0-.034.09.14.14 0 0 0 .032.088c.512.653 1.472 1.778 2.663 2.733C7.374 13.791 8.714 14.5 10 14.5c.86 0 1.748-.317 2.613-.826l-1.089-1.09a3 3 0 0 1-4.109-4.109z" clip-rule="evenodd"/><path fill="#788BA5" d="M9.16 5.595Q9.586 5.5 10 5.5c1.286 0 2.626.709 3.834 1.679 1.19.955 2.15 2.08 2.663 2.733a.14.14 0 0 1 .032.088q.001.042-.034.09c-.278.355-.693.854-1.208 1.39a.75.75 0 1 0 1.083 1.04 20 20 0 0 0 1.305-1.503c.47-.598.474-1.43.001-2.032-.546-.696-1.586-1.92-2.903-2.976C13.475 4.967 11.8 4 10 4c-.395 0-.783.047-1.16.13a.75.75 0 1 0 .32 1.465"/></svg>