<svg xmlns="http://www.w3.org/2000/svg" width="20" height="20" fill="none"><path fill="#788BA5" d="M16.03 3.97a4.285 4.285 0 0 0-6.06 0l-.5.5a.75.75 0 0 0 1.06 1.06l.5-.5a2.786 2.786 0 0 1 3.94 3.94l-2 2a2.786 2.786 0 0 1-3.94 0 .75.75 0 0 0-1.06 1.06 4.286 4.286 0 0 0 6.06 0l2-2a4.285 4.285 0 0 0 0-6.06"/><path fill="#788BA5" d="M7.03 9.03a2.786 2.786 0 0 1 3.94 0 .75.75 0 1 0 1.06-1.06 4.285 4.285 0 0 0-6.06 0l-2 2a4.285 4.285 0 1 0 6.06 6.06l.5-.5a.75.75 0 1 0-1.06-1.06l-.5.5a2.786 2.786 0 0 1-3.94-3.94z"/></svg>