<svg xmlns="http://www.w3.org/2000/svg" width="20" height="20" fill="none"><path fill="#788BA5" fill-rule="evenodd" d="M2 4a2 2 0 0 1 2-2h12a2 2 0 0 1 2 2v4a2 2 0 0 1-2 2h-6v6a2 2 0 0 1-2 2H4a2 2 0 0 1-2-2zm4.5-.5V5A.75.75 0 0 0 8 5V3.5h1.75V6a.75.75 0 0 0 1.5 0V3.5H13V5a.75.75 0 0 0 1.5 0V3.5H16a.5.5 0 0 1 .5.5v4a.5.5 0 0 1-.5.5h-6A1.5 1.5 0 0 0 8.5 10v6a.5.5 0 0 1-.5.5H4a.5.5 0 0 1-.5-.5v-1.5H5A.75.75 0 0 0 5 13H3.5v-1.75H6a.75.75 0 0 0 0-1.5H3.5V8H5a.75.75 0 0 0 0-1.5H3.5V4a.5.5 0 0 1 .5-.5z" clip-rule="evenodd"/></svg>