<svg xmlns="http://www.w3.org/2000/svg" width="20" height="20" fill="none"><path fill="#788BA5" fill-rule="evenodd" d="m17.848 11.561-1.472-.29a6.5 6.5 0 0 0 0-2.541l1.472-.291a8 8 0 0 1 0 3.122m-1.195-6.006-1.247.835a6.5 6.5 0 0 0-1.796-1.796l.835-1.247a8 8 0 0 1 2.207 2.208M11.56 2.152l-.29 1.472a6.5 6.5 0 0 0-2.541 0l-.291-1.472a8 8 0 0 1 3.122 0M5.555 3.347l.835 1.247A6.5 6.5 0 0 0 4.594 6.39l-1.247-.835a8 8 0 0 1 2.208-2.208M2.152 8.44a8 8 0 0 0 0 3.122l1.472-.29a6.5 6.5 0 0 1 0-2.541zm1.195 6.006 1.247-.835a6.5 6.5 0 0 0 1.796 1.796l-.835 1.246a8 8 0 0 1-2.208-2.207m5.092 3.403.29-1.472a6.5 6.5 0 0 0 2.541 0l.291 1.472a8 8 0 0 1-3.122 0m6.006-1.195-.835-1.247a6.5 6.5 0 0 0 1.796-1.796l1.246.835a8 8 0 0 1-2.207 2.207" clip-rule="evenodd"/></svg>