<svg xmlns="http://www.w3.org/2000/svg" width="20" height="20" fill="none"><path fill="#788BA5" d="M10 2a8 8 0 1 0 0 16zM11.045 2.067a8 8 0 0 1 2.017.542l-.575 1.385a6.5 6.5 0 0 0-1.639-.44zM14.87 3.653c.55.422 1.049.917 1.478 1.476l-1.19.913a6.5 6.5 0 0 0-1.2-1.199zM17.727 7.93a8 8 0 0 0-.335-.991l-1.387.572a6.6 6.6 0 0 1 .44 1.642l1.487-.198a8 8 0 0 0-.205-1.026M17.933 11.045a8 8 0 0 1-.542 2.017l-1.385-.575a6.5 6.5 0 0 0 .44-1.639zM14.871 16.348a8 8 0 0 0 1.476-1.478l-1.19-.912a6.5 6.5 0 0 1-1.2 1.2zM13.061 17.392a8 8 0 0 1-2.016.54l-.198-1.487a6.6 6.6 0 0 0 1.642-.44z"/></svg>