<svg xmlns="http://www.w3.org/2000/svg" width="20" height="20" fill="none"><path fill="#F5483F" fill-rule="evenodd" d="m3.852 17.772.574-1.385c.175.072.368.113.574.113h.833V18H5c-.407 0-.795-.081-1.148-.228M14.167 18v-1.5H15q.31-.002.574-.113l.574 1.385A3 3 0 0 1 15 18zM18 5.833h-1.5V5q-.002-.31-.113-.574l1.385-.574C17.92 4.205 18 4.593 18 5zM5.833 2H5c-.407 0-.795.081-1.148.228l.574 1.385c.175-.072.368-.113.574-.113h.833zM2 14.167h1.5V15q.002.31.113.574l-1.385.574A3 3 0 0 1 2 15zM2 12.5h1.5v-1.667H2zm0-3.333h1.5V7.5H2zm0-3.334h1.5V5q.002-.31.113-.574l-1.385-.574A3 3 0 0 0 2 5zM7.5 2v1.5h1.667V2zm3.333 0v1.5H12.5V2zm3.334 0v1.5H15q.31.002.574.113l.574-1.385A3 3 0 0 0 15 2zM18 7.5h-1.5v1.667H18zm0 3.333h-1.5V12.5H18zm0 3.334h-1.5V15q-.002.31-.113.574l1.385.574c.147-.353.228-.741.228-1.148zM12.5 18v-1.5h-1.667V18zm-3.333 0v-1.5H7.5V18z" clip-rule="evenodd"/></svg>