<svg xmlns="http://www.w3.org/2000/svg" width="20" height="20" fill="none"><path fill="#788BA5" fill-rule="evenodd" d="M12.156 11.087a3 3 0 1 0-4.311 0 4.27 4.27 0 0 0-1.706 1.885.75.75 0 0 0 1.362.628 2.75 2.75 0 0 1 4.998 0 .75.75 0 1 0 1.362-.628 4.27 4.27 0 0 0-1.705-1.886M10 10.5a1.5 1.5 0 1 0 0-3 1.5 1.5 0 0 0 0 3" clip-rule="evenodd"/><path fill="#788BA5" fill-rule="evenodd" d="M4 2a2 2 0 0 0-2 2v12a2 2 0 0 0 2 2h12a2 2 0 0 0 2-2V4a2 2 0 0 0-2-2zm12 1.5H4a.5.5 0 0 0-.5.5v12a.5.5 0 0 0 .5.5h12a.5.5 0 0 0 .5-.5V4a.5.5 0 0 0-.5-.5" clip-rule="evenodd"/></svg>