<svg xmlns="http://www.w3.org/2000/svg" width="20" height="20" fill="none"><path fill="#788BA5" d="M11.017 2.068a7.93 7.93 0 0 0-5.092 1.048A8.2 8.2 0 0 0 3.5 5.324V3.667a.75.75 0 1 0-1.5 0v3.722c0 .414.336.75.75.75h3.625a.75.75 0 0 0 0-1.5H4.422A6.7 6.7 0 0 1 6.69 4.406a6.43 6.43 0 0 1 4.13-.85 6.52 6.52 0 0 1 3.79 1.902 6.86 6.86 0 0 1 1.897 3.893.75.75 0 1 0 1.486-.202 8.36 8.36 0 0 0-2.314-4.743 8.02 8.02 0 0 0-4.662-2.338M3.493 10.65a.75.75 0 0 0-1.486.2 8.36 8.36 0 0 0 2.314 4.744 8.02 8.02 0 0 0 4.662 2.338 7.93 7.93 0 0 0 5.092-1.048 8.2 8.2 0 0 0 2.425-2.208v1.657a.75.75 0 0 0 1.5 0v-3.722a.75.75 0 0 0-.75-.75h-3.625a.75.75 0 0 0 0 1.5h1.953a6.7 6.7 0 0 1-2.268 2.233 6.43 6.43 0 0 1-4.13.85 6.52 6.52 0 0 1-3.79-1.902 6.86 6.86 0 0 1-1.897-3.893"/></svg>