<svg xmlns="http://www.w3.org/2000/svg" width="20" height="20" fill="none"><path fill="#788BA5" d="M10.75 4.75a.75.75 0 0 0-1.5 0v.5a.75.75 0 0 0 1.5 0zM6.818 5.757a.75.75 0 0 0-1.06 1.061l.353.354A.75.75 0 1 0 7.17 6.11zM14.243 6.818a.75.75 0 0 0-1.061-1.06l-.354.353a.75.75 0 1 0 1.061 1.06zM4.75 9.25a.75.75 0 0 0 0 1.5h.5a.75.75 0 0 0 0-1.5zM14.75 9.25a.75.75 0 0 0 0 1.5h.5a.75.75 0 0 0 0-1.5zM7.172 13.89a.75.75 0 0 0-1.061-1.062l-.354.354a.75.75 0 1 0 1.061 1.06zM13.89 12.828a.75.75 0 0 0-1.062 1.061l.354.354a.75.75 0 1 0 1.06-1.061zM10.75 14.75a.75.75 0 0 0-1.5 0v.5a.75.75 0 0 0 1.5 0zM10 13a3 3 0 1 0 0-6 3 3 0 0 0 0 6"/></svg>