<svg xmlns="http://www.w3.org/2000/svg" width="20" height="20" fill="none"><path fill="#788BA5" d="M10.75 2a.75.75 0 0 0-1.5 0v1.04a7 7 0 0 0-6.21 6.21H2a.75.75 0 0 0 0 1.5h1.04a7 7 0 0 0 6.21 6.21V18a.75.75 0 0 0 1.5 0v-1.04a7 7 0 0 0 6.21-6.21H18a.75.75 0 0 0 0-1.5h-1.04a7 7 0 0 0-6.21-6.21zm4.7 7.25H14a.75.75 0 0 0 0 1.5h1.45a5.5 5.5 0 0 1-4.7 4.7V14a.75.75 0 0 0-1.5 0v1.45a5.5 5.5 0 0 1-4.7-4.7H6a.75.75 0 0 0 0-1.5H4.55a5.5 5.5 0 0 1 4.7-4.7V6a.75.75 0 0 0 1.5 0V4.55a5.5 5.5 0 0 1 4.7 4.7"/></svg>