<svg xmlns="http://www.w3.org/2000/svg" width="20" height="20" fill="none"><path fill="#788BA5" fill-rule="evenodd" d="M6 2a.75.75 0 0 1 .695.468l3.25 8a.75.75 0 1 1-1.39.564L7.73 9H4.27l-.825 2.032a.75.75 0 0 1-1.39-.564l3.25-8A.75.75 0 0 1 6 2M4.88 7.5h2.24L6 4.743zM14.75 5.083c.658 0 1.27.196 1.782.532A.75.75 0 0 1 18 5.833v5a.75.75 0 0 1-1.468.219 3.25 3.25 0 1 1-1.782-5.968m0 1.5a1.75 1.75 0 1 0 0 3.5 1.75 1.75 0 0 0 0-3.5" clip-rule="evenodd"/><path fill="#788BA5" d="M2.75 13a.75.75 0 0 0 0 1.5h14.5a.75.75 0 0 0 0-1.5zM2.75 16.5a.75.75 0 0 0 0 1.5h11.5a.75.75 0 0 0 0-1.5z"/></svg>