<svg xmlns="http://www.w3.org/2000/svg" width="20" height="20" fill="none"><path fill="#788BA5" d="M2.75 2a.75.75 0 0 1 .75.75V16a.5.5 0 0 0 .5.5h13.25a.75.75 0 0 1 0 1.5H4a2 2 0 0 1-2-2V2.75A.75.75 0 0 1 2.75 2"/><path fill="#788BA5" d="M5.738 14.996c2.168 0 3.593-.822 4.576-2.086.919-1.183 1.423-2.726 1.876-4.115l.021-.064c.48-1.47.914-2.77 1.655-3.725.691-.892 1.674-1.506 3.384-1.506a.75.75 0 0 0 0-1.5c-2.165 0-3.589.822-4.57 2.086-.915 1.18-1.418 2.722-1.872 4.109l-.022.07c-.48 1.469-.915 2.77-1.657 3.724-.693.892-1.678 1.507-3.391 1.507a.75.75 0 0 0 0 1.5"/></svg>