<svg xmlns="http://www.w3.org/2000/svg" width="30" height="30" fill="none"><path fill="#788BA5" d="M10.548 25.075c9.056 0 14.01-7.916 14.01-14.781 0-.225 0-.449-.015-.672A10.3 10.3 0 0 0 27 6.933a9.4 9.4 0 0 1-2.828.818 5.17 5.17 0 0 0 2.165-2.874 9.6 9.6 0 0 1-3.127 1.261 4.86 4.86 0 0 0-2.794-1.569 4.7 4.7 0 0 0-3.122.547 5.1 5.1 0 0 0-2.163 2.437 5.46 5.46 0 0 0-.312 3.323 13.4 13.4 0 0 1-5.622-1.575A14.15 14.15 0 0 1 4.67 5.448a5.45 5.45 0 0 0-.539 3.786c.283 1.289 1.021 2.415 2.064 3.15a4.7 4.7 0 0 1-2.235-.651v.066c0 1.2.394 2.362 1.114 3.29A4.9 4.9 0 0 0 7.91 16.89a4.7 4.7 0 0 1-2.223.09 5.2 5.2 0 0 0 1.752 2.581 4.77 4.77 0 0 0 2.848 1.026c-1.743 1.446-3.897 2.23-6.115 2.228q-.588 0-1.172-.075a13.4 13.4 0 0 0 7.547 2.33"/></svg>