<svg xmlns="http://www.w3.org/2000/svg" width="20" height="20" fill="none"><path fill="#788BA5" d="M7.032 16.714c6.037 0 9.34-5.276 9.34-9.852 0-.15 0-.3-.01-.448A6.9 6.9 0 0 0 18 4.622c-.6.28-1.235.463-1.885.544a3.45 3.45 0 0 0 1.443-1.915 6.4 6.4 0 0 1-2.085.84 3.24 3.24 0 0 0-1.862-1.045 3.14 3.14 0 0 0-2.082.364c-.637.36-1.143.93-1.442 1.625A3.64 3.64 0 0 0 9.88 7.25 8.94 8.94 0 0 1 6.132 6.2a9.4 9.4 0 0 1-3.018-2.568 3.63 3.63 0 0 0-.36 2.523c.189.86.68 1.61 1.376 2.1a3.1 3.1 0 0 1-1.49-.434v.044c0 .8.263 1.574.743 2.193a3.26 3.26 0 0 0 1.89 1.201c-.483.14-.99.16-1.482.06.21.688.619 1.29 1.168 1.72.55.432 1.214.67 1.9.684A6.37 6.37 0 0 1 2.78 15.21q-.391 0-.781-.05a8.95 8.95 0 0 0 5.032 1.553"/></svg>