<svg xmlns="http://www.w3.org/2000/svg" width="20" height="20" fill="none"><path fill="#788BA5" d="M11.042 2.09a4.9 4.9 0 0 0-1.847-.005 4.8 4.8 0 0 0-1.713.68 4.64 4.64 0 0 0-1.88 2.36c-.727.08-1.42.36-2.006.814A4.13 4.13 0 0 0 2.11 8.268a4.2 4.2 0 0 0 .296 2.756 4.08 4.08 0 0 0 1.95 1.946.75.75 0 0 0 .636-1.36 2.58 2.58 0 0 1-1.231-1.23 2.7 2.7 0 0 1-.19-1.772 2.63 2.63 0 0 1 .944-1.483 2.48 2.48 0 0 1 1.627-.522.75.75 0 0 0 .767-.596 3.12 3.12 0 0 1 1.383-1.98 3.3 3.3 0 0 1 1.181-.468c.424-.08.86-.079 1.282.004.423.082.823.244 1.179.475.355.23.658.525.893.866.235.342.396.722.477 1.121s.08.809-.004 1.207a.75.75 0 0 0 .734.904h.715c.447 0 .887.19 1.22.547.335.359.531.856.531 1.385s-.196 1.026-.531 1.385a1.67 1.67 0 0 1-1.22.547.75.75 0 0 0 0 1.5c.88 0 1.712-.375 2.317-1.024A3.53 3.53 0 0 0 18 10.068c0-.894-.33-1.76-.934-2.408a3.17 3.17 0 0 0-2.202-1.022 4.546 4.546 0 0 0-.801-2.584A4.7 4.7 0 0 0 12.75 2.78a4.8 4.8 0 0 0-1.708-.69"/><path fill="#788BA5" d="M9.25 16.25a.75.75 0 0 0 1.5 0V9.934l1.248 1.124a.75.75 0 1 0 1.004-1.115l-2.5-2.25a.75.75 0 0 0-1.004 0l-2.5 2.25a.75.75 0 1 0 1.004 1.114L9.25 9.935z"/></svg>