<svg xmlns="http://www.w3.org/2000/svg" width="20" height="20" fill="none"><path fill="#788BA5" fill-rule="evenodd" d="M9 3a2 2 0 0 0-2 2v.25H3.855a2 2 0 1 0 0 1.5h1.562A7.74 7.74 0 0 0 2.25 13H2a1 1 0 0 0-1 1v2a1 1 0 0 0 1 1h2a1 1 0 0 0 1-1v-2a1 1 0 0 0-1-1h-.25a6.25 6.25 0 0 1 3.309-5.516A2 2 0 0 0 9 9h2a2 2 0 0 0 1.941-1.516A6.25 6.25 0 0 1 16.25 13H16a1 1 0 0 0-1 1v2a1 1 0 0 0 1 1h2a1 1 0 0 0 1-1v-2a1 1 0 0 0-1-1h-.25a7.74 7.74 0 0 0-3.167-6.25h1.562a2 2 0 1 0 0-1.5H13V5a2 2 0 0 0-2-2zm2 1.5H9a.5.5 0 0 0-.5.5v2a.5.5 0 0 0 .5.5h2a.5.5 0 0 0 .5-.5V5a.5.5 0 0 0-.5-.5" clip-rule="evenodd"/></svg>