<svg xmlns="http://www.w3.org/2000/svg" width="20" height="20" fill="none"><path fill="#788BA5" d="M10 13a3 3 0 1 0 0-6 3 3 0 0 0 0 6"/><path fill="#788BA5" fill-rule="evenodd" d="M10 4c-1.8 0-3.475.967-4.773 2.009C3.91 7.065 2.87 8.289 2.324 8.985c-.471.6-.471 1.43 0 2.03.546.696 1.586 1.92 2.903 2.976C6.525 15.033 8.2 16 10 16s3.475-.967 4.773-2.009c1.317-1.056 2.357-2.28 2.903-2.976.471-.6.471-1.43 0-2.03-.546-.696-1.586-1.92-2.903-2.976C13.475 4.967 11.8 4 10 4M3.503 9.912c.512-.652 1.472-1.778 2.663-2.733C7.374 6.209 8.714 5.5 10 5.5s2.626.709 3.834 1.679c1.191.955 2.15 2.08 2.663 2.733a.14.14 0 0 1 .032.088.14.14 0 0 1-.032.088c-.512.653-1.472 1.778-2.663 2.733-1.208.97-2.548 1.679-3.834 1.679s-2.626-.709-3.834-1.679c-1.19-.955-2.15-2.08-2.663-2.732A.14.14 0 0 1 3.471 10c0-.026.008-.057.032-.088" clip-rule="evenodd"/></svg>