<svg xmlns="http://www.w3.org/2000/svg" width="20" height="20" fill="none"><path fill="#788BA5" fill-rule="evenodd" d="M10 18q.583 0 1.143-.081A8.002 8.002 0 0 0 10 2a8 8 0 1 0 0 16m2.297-9.917A6.5 6.5 0 0 1 10 8.5a6.5 6.5 0 0 1-2.297-.417c.243-1.113.688-2.084 1.254-2.84A5 5 0 0 1 10 4.194q.557.405 1.043 1.05c.566.755 1.011 1.726 1.254 2.839M8.27 3.733c-.881.933-1.56 2.19-1.939 3.634A6.5 6.5 0 0 1 4.876 6a6.5 6.5 0 0 1 3.395-2.267M6 10q0-.53.05-1.041a8 8 0 0 1-1.99-1.6 6.5 6.5 0 0 0-.451 1.45c.218.802.762 1.58 1.634 2.234q.4.3.876.55A11 11 0 0 1 6 10m1.5 0c0 .788.099 1.536.276 2.224A9 9 0 0 0 10 12.5c.788 0 1.536-.099 2.224-.276a9 9 0 0 0 .268-2.62A8 8 0 0 1 10 10c-.87 0-1.707-.139-2.492-.396A9 9 0 0 0 7.5 10m-3.767 1.73c.758.715 1.73 1.298 2.843 1.694.396 1.113.979 2.085 1.695 2.843a6.51 6.51 0 0 1-4.538-4.538m5.224 3.027c.322.429.673.778 1.043 1.049q.557-.405 1.043-1.05.3-.399.55-.875a10.6 10.6 0 0 1-3.186 0q.25.476.55.876m4.924-3.164a10.6 10.6 0 0 0 .069-2.634 8 8 0 0 0 1.99-1.6c.205.457.357.943.451 1.45-.218.802-.762 1.58-1.634 2.234q-.4.3-.876.55m-2.152 4.674c.716-.758 1.3-1.73 1.695-2.843 1.113-.396 2.085-.979 2.843-1.695a6.51 6.51 0 0 1-4.538 4.538m1.939-8.9c-.378-1.445-1.058-2.701-1.939-3.634A6.5 6.5 0 0 1 15.124 6a6.5 6.5 0 0 1-1.457 1.367" clip-rule="evenodd"/></svg>