<svg xmlns="http://www.w3.org/2000/svg" width="20" height="20" fill="none"><g clip-path="url(#a)"><path fill="#788BA5" d="M19.579 5.186a2.5 2.5 0 0 0-1.765-1.765C16.258 3 10 3 10 3s-6.257 0-7.814.421A2.5 2.5 0 0 0 .422 5.186C.132 6.774-.01 8.386.001 10c-.01 1.614.13 3.226.421 4.814a2.5 2.5 0 0 0 1.764 1.764C3.743 17 10 17 10 17s6.257 0 7.814-.422a2.5 2.5 0 0 0 1.765-1.764c.29-1.588.432-3.2.421-4.814.01-1.614-.13-3.226-.421-4.814M8 13V7l5.193 3z"/></g><defs><clipPath id="a"><path fill="#fff" d="M0 0h20v20H0z"/></clipPath></defs></svg>